<svg
        version="1.1"
        id="Capa_1"
        xmlns="http://www.w3.org/2000/svg"
        height="17"
        width="17"
        x="15"
        y="15"
        viewBox="0 0 392.62 392.62"
        style="enable-background:new 0 0 392.62 392.62;"
        xml:space="preserve"
>
    <g>
        <path d="M130.489,196.31c0,8.284,6.716,15,15,15H247.13c8.284,0,15-6.716,15-15s-6.716-15-15-15H145.489C137.205,181.31,130.489,188.026,130.489,196.31z"/>
        <path d="M177.094,236.523h-50.82c-10.889,0-19.748-8.859-19.748-19.748v-40.93c0-10.889,8.859-19.748,19.748-19.748h50.82c8.284,0,15-6.716,15-15s-6.716-15-15-15h-50.82c-27.431,0-49.748,22.316-49.748,49.748v40.93c0,27.432,22.317,49.748,49.748,49.748h50.82c8.284,0,15-6.716,15-15S185.378,236.523,177.094,236.523z"/>
        <path d="M266.346,126.097h-50.82c-8.284,0-15,6.716-15,15s6.716,15,15,15h50.82c10.889,0,19.748,8.859,19.748,19.748v40.93c0,10.889-8.859,19.748-19.748,19.748h-50.82c-8.284,0-15,6.716-15,15s6.716,15,15,15h50.82c27.431,0,49.748-22.316,49.748-49.748v-40.93C316.094,148.413,293.777,126.097,266.346,126.097z"/>
        <path d="M310.724,0.929H81.896C36.738,0.929,0,37.667,0,82.825v226.97c0,45.157,36.738,81.896,81.896,81.896h228.828c45.158,0,81.896-36.738,81.896-81.896V82.825C392.62,37.667,355.881,0.929,310.724,0.929z M362.62,309.795c0,28.615-23.28,51.896-51.896,51.896H81.896C53.28,361.691,30,338.41,30,309.795V82.825c0-28.616,23.28-51.896,51.896-51.896h228.828c28.616,0,51.896,23.28,51.896,51.896V309.795z"/>
    </g>
</svg>
